<?xml version="1.0" encoding="UTF-8" standalone="no"?>
<!-- Generator: Adobe Illustrator 16.0.0, SVG Export Plug-In . SVG Version: 6.00 Build 0)  -->

<svg
   xmlns:dc="http://purl.org/dc/elements/1.1/"
   xmlns:cc="http://creativecommons.org/ns#"
   xmlns:rdf="http://www.w3.org/1999/02/22-rdf-syntax-ns#"
   xmlns:svg="http://www.w3.org/2000/svg"
   xmlns="http://www.w3.org/2000/svg"
   xmlns:sodipodi="http://sodipodi.sourceforge.net/DTD/sodipodi-0.dtd"
   xmlns:inkscape="http://www.inkscape.org/namespaces/inkscape"
   version="1.1"
   id="Capa_1"
   x="0px"
   y="0px"
   width="50"
   height="50"
   viewBox="0 0 50.000001 50.000001"
   xml:space="preserve"
   sodipodi:docname="car.svg"
   inkscape:version="0.92.2 (5c3e80d, 2017-08-06)"><metadata
     id="metadata41"><rdf:RDF><cc:Work
         rdf:about=""><dc:format>image/svg+xml</dc:format><dc:type
           rdf:resource="http://purl.org/dc/dcmitype/StillImage" /><dc:title></dc:title></cc:Work></rdf:RDF></metadata><defs
     id="defs39" /><sodipodi:namedview
     pagecolor="#ffffff"
     bordercolor="#666666"
     borderopacity="1"
     objecttolerance="10"
     gridtolerance="10"
     guidetolerance="10"
     inkscape:pageopacity="0"
     inkscape:pageshadow="2"
     inkscape:window-width="1280"
     inkscape:window-height="721"
     id="namedview37"
     showgrid="false"
     inkscape:zoom="9.96"
     inkscape:cx="25"
     inkscape:cy="40.300466"
     inkscape:window-x="-9"
     inkscape:window-y="-9"
     inkscape:window-maximized="1"
     inkscape:current-layer="g4" /><g
     id="g4"
     transform="translate(0,-397.64499)"><path
       d="m 49.953994,425.35599 c 0,-1.18409 -0.222295,-2.31506 -0.623724,-3.34975 -0.04138,-0.26304 -0.08867,-0.52568 -0.147824,-0.79208 l -4.347958,-12.95911 -0.0294,-0.1166 c -1.521294,-5.44761 -3.685879,-10.48952 -9.17461,-10.48952 H 14.644903 c -5.6240318,0 -7.6113856,5.16683 -9.1660005,10.45927 l -4.54800052,12.99071 c -0.65749379,1.26693 -1.03130359,2.71622 -1.03130359,4.25708 v 4.0325 c 0,0.62345 0.06127663,1.23331 0.17779168,1.82072 -0.11327231,0.35488 -0.17779168,0.73734 -0.17779168,1.14051 v 11.99355 c 0,1.75872 1.18550151,3.18474 2.64786601,3.18474 h 5.4947692 c 1.4615822,0 2.6470844,-1.42602 2.6470844,-3.18474 v -5.99765 h 28.788834 v 5.99765 c 0,1.75872 1.185724,3.18474 2.6482,3.18474 h 5.180112 c 1.462923,0 2.648202,-1.42602 2.648202,-3.18474 v -11.99489 c 0,-0.40169 -0.06519,-0.7859 -0.177569,-1.13958 0.116068,-0.58835 0.177569,-1.19753 0.177569,-1.82085 v -4.03182 h -6.72e-4 z M 8.7057659,409.40928 c 1.7312881,-5.87445 3.1235421,-7.66774 5.9391371,-7.66774 h 20.984338 c 2.794907,0 4.351199,2.00011 5.932651,7.64247 l 3.172855,7.73283 c -1.036,-0.4614 -2.176103,-0.71745 -3.373905,-0.71745 H 8.4927515 c -1.0784915,0 -2.1091242,0.20858 -3.0600301,0.58607 z m 2.7255791,21.51066 H 5.6337714 c -1.0438273,0 -1.8904064,-1.01909 -1.8904064,-2.27431 0,-1.25564 0.8465791,-2.27406 1.8904064,-2.27406 h 5.7975736 c 1.044276,0 1.890855,1.01842 1.890855,2.27406 0,1.25522 -0.847139,2.27431 -1.890855,2.27431 z m 20.480149,-0.45549 H 18.426163 c -0.661184,0 -1.196907,-0.64469 -1.196907,-1.43946 0,-0.79625 0.535723,-1.44068 1.196907,-1.44068 h 13.485331 c 0.661967,0 1.197578,0.64443 1.197578,1.44068 0,0.79477 -0.535611,1.43946 -1.197578,1.43946 z m 12.16218,0.45549 h -5.797351 c -1.044721,0 -1.890853,-1.01909 -1.890853,-2.27431 0,-1.25564 0.846803,-2.27406 1.890853,-2.27406 h 5.797351 c 1.044722,0 1.891525,1.01842 1.891525,2.27406 0,1.25522 -0.846803,2.27431 -1.891525,2.27431 z"
       id="path2"
       inkscape:connector-curvature="0"
       style="stroke-width:0.12262669;fill:#ff0000" /></g><g
     id="g6"
     transform="translate(0,-397.64499)" /><g
     id="g8"
     transform="translate(0,-397.64499)" /><g
     id="g10"
     transform="translate(0,-397.64499)" /><g
     id="g12"
     transform="translate(0,-397.64499)" /><g
     id="g14"
     transform="translate(0,-397.64499)" /><g
     id="g16"
     transform="translate(0,-397.64499)" /><g
     id="g18"
     transform="translate(0,-397.64499)" /><g
     id="g20"
     transform="translate(0,-397.64499)" /><g
     id="g22"
     transform="translate(0,-397.64499)" /><g
     id="g24"
     transform="translate(0,-397.64499)" /><g
     id="g26"
     transform="translate(0,-397.64499)" /><g
     id="g28"
     transform="translate(0,-397.64499)" /><g
     id="g30"
     transform="translate(0,-397.64499)" /><g
     id="g32"
     transform="translate(0,-397.64499)" /><g
     id="g34"
     transform="translate(0,-397.64499)" /></svg>