<?xml version="1.0" encoding="UTF-8" standalone="no"?>
<!-- Generator: Adobe Illustrator 16.0.0, SVG Export Plug-In . SVG Version: 6.00 Build 0)  -->

<svg
   xmlns:dc="http://purl.org/dc/elements/1.1/"
   xmlns:cc="http://creativecommons.org/ns#"
   xmlns:rdf="http://www.w3.org/1999/02/22-rdf-syntax-ns#"
   xmlns:svg="http://www.w3.org/2000/svg"
   xmlns="http://www.w3.org/2000/svg"
   xmlns:sodipodi="http://sodipodi.sourceforge.net/DTD/sodipodi-0.dtd"
   xmlns:inkscape="http://www.inkscape.org/namespaces/inkscape"
   version="1.1"
   id="Capa_1"
   x="0px"
   y="0px"
   width="50"
   height="50"
   viewBox="0 0 50.000001 50.000001"
   xml:space="preserve"
   inkscape:version="0.92.2 (5c3e80d, 2017-08-06)"
   sodipodi:docname="my_car.svg"><metadata
     id="metadata41"><rdf:RDF><cc:Work
         rdf:about=""><dc:format>image/svg+xml</dc:format><dc:type
           rdf:resource="http://purl.org/dc/dcmitype/StillImage" /><dc:title></dc:title></cc:Work></rdf:RDF></metadata><defs
     id="defs39" /><sodipodi:namedview
     pagecolor="#ffffff"
     bordercolor="#666666"
     borderopacity="1"
     objecttolerance="10"
     gridtolerance="10"
     guidetolerance="10"
     inkscape:pageopacity="0"
     inkscape:pageshadow="2"
     inkscape:window-width="1280"
     inkscape:window-height="721"
     id="namedview37"
     showgrid="false"
     inkscape:zoom="9.96"
     inkscape:cx="21.987952"
     inkscape:cy="25"
     inkscape:window-x="-9"
     inkscape:window-y="-9"
     inkscape:window-maximized="1"
     inkscape:current-layer="Capa_1" /><g
     id="g3"
     style="fill:#ffb300;fill-opacity:1"
     transform="matrix(0.11067303,0,0,0.13330112,0.10040161,-4.6167123)"><path
       d="m 447.639,244.402 c 0,-8.805 -1.988,-17.215 -5.578,-24.909 -0.37,-1.956 -0.793,-3.909 -1.322,-5.89 l -38.884,-96.365 -0.263,-0.867 C 387.987,75.862 368.629,38.37 319.543,38.37 H 131.868 c -50.296,0 -68.069,38.421 -81.972,77.776 l -40.673,96.6 C 3.343,222.167 0,232.944 0,244.402 v 29.986 c 0,4.636 0.548,9.171 1.59,13.539 C 0.577,290.566 0,293.41 0,296.408 v 89.185 c 0,13.078 10.602,23.682 23.68,23.682 h 49.14 c 13.071,0 23.673,-10.604 23.673,-23.682 v -44.599 h 257.46 v 44.599 c 0,13.078 10.604,23.682 23.683,23.682 h 46.326 c 13.083,0 23.683,-10.604 23.683,-23.682 v -89.195 c 0,-2.987 -0.583,-5.844 -1.588,-8.474 1.038,-4.375 1.588,-8.905 1.588,-13.54 v -29.981 h -0.006 z M 78.754,125.821 C 94.237,82.138 106.688,68.803 131.868,68.803 h 187.664 c 24.995,0 38.913,14.873 53.056,56.83 l 28.375,57.502 C 391.698,179.704 381.502,177.8 370.79,177.8 H 76.849 c -9.645,0 -18.862,1.551 -27.366,4.358 z m 24.375,159.955 H 51.281 c -9.335,0 -16.906,-7.578 -16.906,-16.912 0,-9.337 7.571,-16.91 16.906,-16.91 h 51.848 c 9.339,0 16.91,7.573 16.91,16.91 0,9.334 -7.576,16.912 -16.91,16.912 z m 183.155,-3.387 h -120.6 c -5.913,0 -10.704,-4.794 -10.704,-10.704 0,-5.921 4.791,-10.713 10.704,-10.713 h 120.6 c 5.92,0 10.71,4.792 10.71,10.713 0,5.91 -4.79,10.704 -10.71,10.704 z m 108.767,3.387 h -51.846 c -9.343,0 -16.91,-7.578 -16.91,-16.912 0,-9.337 7.573,-16.91 16.91,-16.91 h 51.846 c 9.343,0 16.916,7.573 16.916,16.91 0,9.334 -7.573,16.912 -16.916,16.912 z"
       id="path5"
       style="fill:#ffb300;fill-opacity:1"
       inkscape:connector-curvature="0" /></g><g
     id="g7"
     transform="translate(0,-397.64499)" /><g
     id="g9"
     transform="translate(0,-397.64499)" /><g
     id="g11"
     transform="translate(0,-397.64499)" /><g
     id="g13"
     transform="translate(0,-397.64499)" /><g
     id="g15"
     transform="translate(0,-397.64499)" /><g
     id="g17"
     transform="translate(0,-397.64499)" /><g
     id="g19"
     transform="translate(0,-397.64499)" /><g
     id="g21"
     transform="translate(0,-397.64499)" /><g
     id="g23"
     transform="translate(0,-397.64499)" /><g
     id="g25"
     transform="translate(0,-397.64499)" /><g
     id="g27"
     transform="translate(0,-397.64499)" /><g
     id="g29"
     transform="translate(0,-397.64499)" /><g
     id="g31"
     transform="translate(0,-397.64499)" /><g
     id="g33"
     transform="translate(0,-397.64499)" /><g
     id="g35"
     transform="translate(0,-397.64499)" /></svg>